<?xml version="1.0" encoding="UTF-8" standalone="no"?>
<!DOCTYPE svg PUBLIC "-//W3C//DTD SVG 1.1//EN" "http://www.w3.org/Graphics/SVG/1.1/DTD/svg11.dtd">
<svg width="100%" height="100%" viewBox="0 0 512 512" version="1.1" xmlns="http://www.w3.org/2000/svg" xmlns:xlink="http://www.w3.org/1999/xlink" xml:space="preserve" xmlns:serif="http://www.serif.com/" style="fill-rule:evenodd;clip-rule:evenodd;stroke-linejoin:round;stroke-miterlimit:2;">
    <g transform="matrix(-0.433164,0,0,0.4,512,0)">
        <rect x="0" y="0" width="1182" height="1280" style="fill:rgb(96,0,32);"/>
    </g>
    <g transform="matrix(-0.0338544,0,0,-0.0338544,456.082,472.711)">
        <path d="M3480,12794C3269,12758 3203,12709 3150,12550C3121,12463 3114,12279 3129,12032C3149,11730 3148,11729 2882,11671C2816,11656 2731,11624 2587,11559C2389,11469 2264,11420 2236,11420C2228,11420 2169,11482 2104,11558C1714,12014 1535,12085 1286,11883C1254,11856 1154,11754 1064,11656C864,11437 827,11375 827,11256C827,11116 902,11006 1181,10737L1351,10573L1291,10479C1178,10305 1062,10045 985,9788C968,9733 949,9693 933,9678L908,9655L602,9654C349,9654 287,9651 248,9638C101,9589 36,9503 10,9321C-5,9221 3,8810 21,8735C51,8607 113,8524 211,8478C313,8430 354,8425 679,8425L982,8425L1006,8342C1067,8131 1211,7827 1315,7688C1415,7556 1425,7579 1146,7305C827,6991 805,6961 805,6820C805,6744 808,6730 835,6683C886,6595 986,6476 1119,6348C1319,6153 1423,6088 1529,6089C1663,6089 1766,6158 1973,6385C2029,6446 2129,6553 2196,6623L2318,6751L2417,6702C2594,6613 2824,6532 3067,6470C3089,6464 3118,6452 3130,6442L3152,6425L3141,6203C3112,5614 3130,5474 3244,5373C3306,5318 3391,5292 3547,5279C3684,5268 4001,5281 4098,5302C4266,5338 4360,5479 4379,5722C4388,5825 4380,6048 4359,6298C4349,6420 4350,6433 4366,6451C4376,6462 4440,6488 4514,6511C4718,6574 4822,6615 4999,6701L5164,6781L5209,6728C5314,6608 5562,6340 5626,6279C5807,6106 5969,6061 6121,6141C6183,6174 6406,6369 6518,6488C6717,6699 6747,6839 6633,7020C6592,7085 6405,7271 6228,7424C6158,7485 6096,7546 6089,7562C6073,7601 6083,7630 6159,7760C6271,7954 6337,8095 6394,8268C6410,8313 6433,8364 6446,8379C6502,8446 6600,8459 6875,8435C7182,8409 7303,8427 7396,8512C7482,8591 7512,8730 7512,9055C7511,9279 7497,9384 7454,9479C7440,9512 7416,9549 7402,9563C7361,9603 7268,9640 7172,9657C7085,9672 7060,9672 6665,9655C6479,9647 6458,9664 6409,9860C6375,9996 6372,10001 6252,10230C6208,10315 6163,10413 6154,10447C6126,10550 6133,10562 6321,10734C6498,10898 6587,11002 6634,11100C6661,11157 6665,11176 6665,11251C6665,11383 6632,11442 6432,11661C6187,11929 6107,11985 5969,11985C5902,11985 5886,11981 5819,11948C5716,11896 5626,11815 5456,11625C5376,11535 5295,11450 5278,11437C5209,11386 5167,11393 5016,11484C4953,11521 4884,11552 4808,11576C4746,11595 4650,11626 4596,11643C4486,11678 4407,11721 4377,11762C4358,11787 4358,11795 4370,12010C4384,12243 4379,12391 4356,12477C4309,12654 4218,12744 4057,12775C3987,12788 3532,12803 3480,12794ZM3945,10094C4276,10040 4566,9837 4702,9565C4777,9415 4804,9293 4804,9100C4805,8881 4771,8746 4671,8576C4531,8337 4265,8162 3945,8099C3844,8079 3568,8081 3462,8103C3073,8183 2775,8428 2670,8756C2627,8892 2617,8973 2623,9150C2627,9278 2632,9320 2654,9393C2751,9718 2993,9955 3335,10058C3534,10119 3723,10130 3945,10094Z" style="fill:rgb(192,64,160);fill-rule:nonzero;"/>
    </g>
    <g transform="matrix(-0.0338544,0,0,-0.0338544,456.082,472.711)">
        <path d="M7505,7440C7483,7435 7398,7420 7315,7405C6903,7334 6782,7253 6764,7037C6754,6918 6775,6796 6856,6512C6905,6343 6910,6282 6881,6233C6862,6202 6835,6187 6668,6112C6631,6095 6522,6023 6423,5949C6213,5792 6134,5740 6108,5740C6098,5740 6027,5787 5951,5844C5636,6082 5503,6150 5352,6150C5248,6150 5153,6090 5065,5966C5005,5881 4843,5609 4804,5525C4739,5390 4744,5266 4817,5162C4871,5084 4983,4997 5210,4855C5316,4789 5407,4732 5412,4729C5418,4725 5408,4683 5386,4625C5310,4423 5263,4206 5236,3931C5220,3769 5210,3746 5145,3723C5123,3715 5022,3694 4920,3675C4630,3620 4543,3591 4467,3521C4361,3423 4348,3280 4416,2990C4430,2932 4450,2847 4461,2800C4491,2675 4548,2562 4610,2507C4682,2442 4739,2425 4875,2426C4989,2428 5064,2441 5370,2514C5449,2533 5515,2548 5516,2547C5656,2277 5848,2024 6038,1860C6122,1787 6127,1804 5899,1463C5747,1237 5702,1158 5680,1077C5664,1017 5672,926 5698,874C5765,744 6141,479 6387,390C6494,351 6590,371 6692,451C6749,496 6830,611 6944,807C7029,953 7163,1173 7176,1189C7178,1191 7214,1183 7257,1172C7446,1121 7637,1093 7863,1081C8063,1071 8064,1070 8074,972C8085,868 8178,373 8201,295C8243,156 8297,78 8384,32C8431,7 8444,5 8555,6C8694,6 8811,28 9049,96C9229,148 9268,166 9326,226C9395,298 9414,359 9414,515C9413,631 9410,661 9377,790C9357,870 9317,1012 9289,1105C9261,1199 9236,1287 9233,1301C9227,1335 9258,1361 9387,1430C9514,1499 9713,1631 9818,1717C9864,1754 9912,1794 9925,1804L9949,1823L10162,1669C10517,1414 10596,1367 10728,1335C10856,1304 10966,1337 11061,1437C11116,1494 11330,1804 11377,1895C11485,2105 11475,2227 11338,2364C11265,2436 11165,2503 10955,2620C10724,2748 10694,2767 10682,2795C10665,2832 10666,2837 10705,2952C10770,3141 10809,3309 10835,3510C10852,3641 10866,3676 10912,3710C10970,3753 11043,3771 11291,3805C11389,3818 11489,3834 11512,3840C11695,3888 11783,3960 11811,4087C11846,4241 11744,4736 11642,4910C11538,5087 11368,5104 10921,4979C10637,4900 10612,4906 10524,5082C10458,5215 10426,5261 10310,5395C10194,5527 10143,5603 10124,5666C10105,5733 10109,5742 10239,5925C10445,6213 10507,6360 10480,6500C10457,6623 10383,6704 10140,6874C9897,7043 9802,7090 9694,7090C9529,7090 9416,6978 9200,6598C9071,6372 9050,6350 8972,6350C8947,6350 8873,6367 8806,6389C8698,6424 8664,6430 8495,6444C8258,6464 8179,6481 8134,6524C8101,6554 8100,6558 8074,6730C8021,7094 7975,7232 7873,7341C7806,7413 7740,7442 7632,7446C7584,7448 7527,7445 7505,7440ZM8326,4784C8545,4745 8734,4642 8882,4481C9056,4290 9151,4008 9137,3725C9130,3597 9105,3492 9056,3386C8907,3062 8561,2824 8163,2770C8036,2753 7799,2762 7700,2789C7387,2872 7172,3048 7044,3326C6948,3532 6920,3827 6976,4034C7028,4226 7159,4418 7322,4543C7607,4760 7971,4848 8326,4784Z" style="fill:rgb(255,64,160);fill-rule:nonzero;"/>
    </g>
</svg>